<svg xmlns="http://www.w3.org/2000/svg" xmlns:xlink="http://www.w3.org/1999/xlink" width="500" zoomAndPan="magnify" viewBox="0 0 375 374.999991" height="500" preserveAspectRatio="xMidYMid meet" version="1.0"><path fill="#ef4b3c" d="M 368.519531 236.675781 C 355.003906 221.113281 322.976562 221.625 296.992188 237.832031 C 289.554688 242.46875 283.417969 247.890625 278.757812 253.628906 L 96.242188 253.628906 C 91.585938 247.890625 85.453125 242.460938 78.007812 237.832031 C 52.03125 221.625 20.007812 221.113281 6.484375 236.675781 C -7.03125 252.238281 3.078125 277.988281 29.054688 294.1875 C 32.78125 296.5 36.628906 298.492188 40.53125 300.164062 C 36.636719 301.839844 32.78125 303.820312 29.054688 306.144531 C 3.085938 322.347656 -7.035156 348.097656 6.484375 363.652344 C 20 379.21875 52.027344 378.707031 78.007812 362.5 C 85.453125 357.867188 91.585938 352.441406 96.242188 346.707031 L 278.765625 346.707031 C 283.417969 352.441406 289.546875 357.867188 296.996094 362.5 C 322.976562 378.707031 355.003906 379.21875 368.523438 363.652344 C 382.023438 348.097656 371.921875 322.347656 345.941406 306.144531 C 342.222656 303.820312 338.378906 301.839844 334.476562 300.164062 C 338.367188 298.496094 342.222656 296.5 345.941406 294.191406 C 371.917969 277.988281 382.019531 252.238281 368.519531 236.675781 Z M 368.519531 236.675781 " fill-opacity="1" fill-rule="nonzero"/><path fill="#ef4b3c" d="M 301.933594 141.3125 C 292.304688 141.3125 284.492188 141.3125 284.492188 141.3125 L 279.089844 124.726562 C 276.113281 115.5625 271.285156 115.5625 268.320312 124.726562 C 265.324219 133.890625 262.917969 141.3125 262.917969 141.3125 L 245.472656 141.3125 C 235.84375 141.3125 234.34375 145.914062 242.144531 151.570312 C 249.945312 157.226562 256.257812 161.824219 256.257812 161.824219 L 250.851562 178.417969 C 247.894531 187.585938 251.796875 190.421875 259.597656 184.761719 C 267.382812 179.097656 273.699219 174.503906 273.699219 174.503906 L 287.808594 184.761719 C 295.609375 190.425781 299.511719 187.589844 296.542969 178.417969 C 293.554688 169.246094 291.144531 161.824219 291.144531 161.824219 L 305.265625 151.570312 C 313.058594 145.910156 311.554688 141.3125 301.933594 141.3125 Z M 301.933594 141.3125 " fill-opacity="1" fill-rule="nonzero"/><path fill="#ef4b3c" d="M 125.179688 141.3125 C 115.554688 141.3125 107.742188 141.3125 107.742188 141.3125 L 102.339844 124.726562 C 99.359375 115.5625 94.535156 115.5625 91.570312 124.726562 C 88.570312 133.890625 86.164062 141.3125 86.164062 141.3125 L 68.722656 141.3125 C 59.09375 141.3125 57.59375 145.914062 65.390625 151.570312 C 73.195312 157.226562 79.503906 161.824219 79.503906 161.824219 L 74.097656 178.417969 C 71.136719 187.585938 75.042969 190.421875 82.847656 184.761719 C 90.632812 179.097656 96.949219 174.503906 96.949219 174.503906 L 111.058594 184.761719 C 118.859375 190.425781 122.761719 187.589844 119.796875 178.417969 C 116.804688 169.246094 114.390625 161.824219 114.390625 161.824219 L 128.515625 151.570312 C 136.308594 145.910156 134.804688 141.3125 125.179688 141.3125 Z M 125.179688 141.3125 " fill-opacity="1" fill-rule="nonzero"/><path fill="#ef4b3c" d="M 338.441406 215.730469 C 345.042969 215.730469 351.21875 216.609375 356.847656 218.253906 C 360.429688 204.210938 362.316406 189.648438 362.316406 174.816406 C 362.316406 78.414062 283.894531 0 187.503906 0 C 91.113281 0 12.691406 78.414062 12.691406 174.8125 C 12.691406 189.695312 14.535156 204.261719 18.097656 218.273438 C 23.746094 216.613281 29.9375 215.730469 36.566406 215.730469 C 42.066406 215.730469 47.667969 216.371094 53.257812 217.507812 C 48.945312 203.898438 46.679688 189.554688 46.679688 174.820312 C 46.679688 97.171875 109.855469 34 187.503906 34 C 265.152344 34 328.324219 97.171875 328.324219 174.820312 C 328.324219 189.519531 325.960938 203.867188 321.621094 217.53125 C 327.269531 216.378906 332.910156 215.730469 338.441406 215.730469 Z M 338.441406 215.730469 " fill-opacity="1" fill-rule="nonzero"/><path fill="#ef4b3c" d="M 225.726562 115.269531 C 212.675781 115.269531 202.121094 115.269531 202.121094 115.269531 L 194.804688 92.800781 C 190.78125 80.402344 184.234375 80.402344 180.21875 92.800781 C 176.167969 105.214844 172.914062 115.269531 172.914062 115.269531 L 149.28125 115.269531 C 136.246094 115.269531 134.222656 121.496094 144.777344 129.148438 C 155.351562 136.8125 163.894531 143.03125 163.894531 143.03125 L 156.578125 165.5 C 152.558594 177.914062 157.84375 181.753906 168.410156 174.09375 C 178.953125 166.421875 187.507812 160.210938 187.507812 160.210938 L 206.609375 174.09375 C 217.15625 181.753906 222.4375 177.914062 218.417969 165.5 C 214.386719 153.09375 211.121094 143.03125 211.121094 143.03125 L 230.242188 129.148438 C 240.785156 121.496094 238.765625 115.269531 225.726562 115.269531 Z M 225.726562 115.269531 " fill-opacity="1" fill-rule="nonzero"/></svg>